HIERARCHY
ROOT Hips
{
	OFFSET 0.000000 0.000000 0.000000
	CHANNELS 6 Xposition Yposition Zposition Xrotation Yrotation Zrotation
	JOINT LeftUpLeg_virtual
	{
		OFFSET 0.000000 0.000000 0.000000
		CHANNELS 3 Xrotation Yrotation Zrotation
		JOINT LeftUpLeg
		{
			OFFSET 13.026900 -6.336304 -1.092800
			CHANNELS 3 Xrotation Yrotation Zrotation
			JOINT LeftLeg
			{
				OFFSET 0.524474 -46.096886 9.782700
				CHANNELS 3 Xrotation Yrotation Zrotation
				JOINT LeftFoot
				{
					OFFSET -0.524474 -53.427422 -12.948200
					CHANNELS 3 Xrotation Yrotation Zrotation
					JOINT LeftToeBase
					{
						OFFSET 0.192200 -14.009700 16.364100
						CHANNELS 3 Xrotation Yrotation Zrotation
						JOINT LeftToe_End
						{
							OFFSET -1.784700 -0.561700 9.474800
							CHANNELS 3 Xrotation Yrotation Zrotation
							End Site
							{
								OFFSET 0 0 0
							}
						}
					}
				}
			}
		}
	}
	JOINT RightUpLeg_virtual
	{
		OFFSET 0.000000 0.000000 0.000000
		CHANNELS 3 Xrotation Yrotation Zrotation
		JOINT RightUpLeg
		{
			OFFSET -12.883000 -6.336304 -1.092800
			CHANNELS 3 Xrotation Yrotation Zrotation
			JOINT RightLeg
			{
				OFFSET -0.524587 -46.096825 9.782800
				CHANNELS 3 Xrotation Yrotation Zrotation
				JOINT RightFoot
				{
					OFFSET 0.524587 -53.427383 -12.948300
					CHANNELS 3 Xrotation Yrotation Zrotation
					JOINT RightToeBase
					{
						OFFSET -0.192200 -14.009700 16.364100
						CHANNELS 3 Xrotation Yrotation Zrotation
						JOINT RightToe_End
						{
							OFFSET 1.784700 -0.561700 9.474800
							CHANNELS 3 Xrotation Yrotation Zrotation
							End Site
							{
								OFFSET 0 0 0
							}
						}
					}
				}
			}
		}
	}
	JOINT Spine_virtual
	{
		OFFSET 0.000000 0.000000 0.000000
		CHANNELS 3 Xrotation Yrotation Zrotation
		JOINT Spine
		{
			OFFSET 0.072000 7.257294 -0.789700
			CHANNELS 3 Xrotation Yrotation Zrotation
			JOINT Spine1
			{
				OFFSET 0.000000 12.508769 -0.658067
				CHANNELS 3 Xrotation Yrotation Zrotation
				JOINT Spine1_split
				{
					OFFSET 0.000000 12.508769 -0.658067
					CHANNELS 3 Xrotation Yrotation Zrotation
					JOINT Spine2
					{
						OFFSET 0.000000 12.508769 -0.658067
						CHANNELS 3 Xrotation Yrotation Zrotation
						JOINT Neck_virtual
						{
							OFFSET 0.000000 0.000000 0.000000
							CHANNELS 3 Xrotation Yrotation Zrotation
							JOINT Neck
							{
								OFFSET 0.000000 14.033295 7.520400
								CHANNELS 3 Xrotation Yrotation Zrotation
								JOINT Head
								{
									OFFSET 0.000000 8.198502 5.703100
									CHANNELS 3 Xrotation Yrotation Zrotation
									JOINT HeadTop_End
									{
										OFFSET 0.000000 17.760803 13.332701
										CHANNELS 3 Xrotation Yrotation Zrotation
										End Site
										{
											OFFSET 0 0 0
										}
									}
								}
							}
						}
						JOINT LeftShoulder_virtual
						{
							OFFSET 0.000000 0.000000 0.000000
							CHANNELS 3 Xrotation Yrotation Zrotation
							JOINT LeftShoulder
							{
								OFFSET 6.292450 5.785301 -0.669000
								CHANNELS 3 Xrotation Yrotation Zrotation
								JOINT LeftShoulder_split
								{
									OFFSET 6.292450 5.785301 -0.669000
									CHANNELS 3 Xrotation Yrotation Zrotation
									JOINT LeftArm
									{
										OFFSET 13.907140 -6.093903 1.965100
										CHANNELS 3 Xrotation Yrotation Zrotation
										JOINT LeftForeArm
										{
											OFFSET 34.140198 0.000000 0.000000
											CHANNELS 3 Xrotation Yrotation Zrotation
											JOINT LeftHand
											{
												OFFSET 40.960209 0.000000 0.000000
												CHANNELS 3 Xrotation Yrotation Zrotation
												End Site
												{
													OFFSET 0 0 0
												}
											}
										}
									}
								}
							}
						}
						JOINT RightShoulder_virtual
						{
							OFFSET 0.000000 0.000000 0.000000
							CHANNELS 3 Xrotation Yrotation Zrotation
							JOINT RightShoulder
							{
								OFFSET -6.292450 5.785301 -0.669000
								CHANNELS 3 Xrotation Yrotation Zrotation
								JOINT RightShoulder_split
								{
									OFFSET -6.292450 5.785301 -0.669000
									CHANNELS 3 Xrotation Yrotation Zrotation
									JOINT RightArm
									{
										OFFSET -13.907140 -6.093903 1.965100
										CHANNELS 3 Xrotation Yrotation Zrotation
										JOINT RightForeArm
										{
											OFFSET -34.140198 0.000000 0.000000
											CHANNELS 3 Xrotation Yrotation Zrotation
											JOINT RightHand
											{
												OFFSET -40.960209 0.000000 0.000000
												CHANNELS 3 Xrotation Yrotation Zrotation
												End Site
												{
													OFFSET 0 0 0
												}
											}
										}
									}
								}
							}
						}
					}
				}
			}
		}
	}
}
MOTION
Frames: 9
Frame Time: 0.03333333
62.535820 88.535835 271.000580 0.000000 0.000000 0.000000 2.600199 27.886921 -15.358445 -18.944375 8.639662 -1.289122 92.430915 5.807198 0.045183 14.533710 3.384213 19.247963 2.678224 0.000004 0.000008 0.000000 0.000000 0.000000 2.600199 27.886921 -15.358445 -54.768497 3.844086 -1.827949 52.344586 6.090626 -0.683596 -3.734032 2.349434 18.717995 -3.222714 0.000006 -0.000002 0.000000 0.000000 0.000000 2.600199 27.886921 -15.358445 2.517247 -8.494372 -0.636923 2.171915 -3.807842 1.397092 0.000000 0.000000 0.000000 0.000000 0.000000 0.000000 2.111294 -3.874991 1.334498 2.146345 3.276998 0.282031 -11.327448 36.663766 5.753505 0.000000 0.000000 0.000000 2.111294 -3.874991 1.334498 0.543622 -1.205991 -9.510708 0.000000 0.000000 0.000000 18.985855 -16.238959 -51.504165 0.000367 -80.003297 0.000379 0.000000 0.000000 0.000000 2.111294 -3.874991 1.334498 0.640670 -6.488260 9.965679 0.000000 0.000000 0.000000 34.769795 13.168157 44.617774 179.999991 84.495437 179.999964 0.000000 0.000000 0.000000 
69.919243 86.562996 286.561310 0.000000 0.000000 0.000000 1.295129 28.562941 -16.757726 -43.613261 8.206842 4.591235 104.065384 6.129241 -0.258325 11.746968 1.407246 18.922930 -0.665707 0.000005 0.000005 0.000000 0.000000 0.000000 1.295129 28.562941 -16.757726 -47.765453 2.854624 0.491118 63.855609 7.143203 -0.265605 -20.831969 -0.276695 14.487337 -4.331980 -0.000009 0.000004 0.000000 0.000000 0.000000 1.295129 28.562941 -16.757726 4.489163 -3.139095 0.272725 3.685480 -1.692998 1.426698 0.000000 0.000000 0.000000 0.000000 0.000000 0.000000 3.657015 -1.820084 1.396205 0.856917 2.472372 0.809336 -13.888071 30.928596 5.475023 0.000000 0.000000 0.000000 3.657015 -1.820084 1.396205 0.537711 -0.925233 -8.721435 0.000000 0.000000 0.000000 28.704782 -17.140809 -55.244360 0.000025 -63.812026 0.000020 0.000000 0.000000 0.000000 3.657015 -1.820084 1.396205 0.815844 -4.239276 12.335990 0.000000 0.000000 0.000000 15.586524 20.224395 47.923298 179.997983 87.388357 -179.998024 0.000000 0.000000 0.000000 
79.631996 85.542679 302.489777 0.000000 0.000000 0.000000 -0.041804 28.368600 -17.623893 -66.963106 6.651253 8.336021 103.658277 7.226998 -0.304442 12.826386 1.056583 18.515150 -1.408048 0.000010 0.000007 0.000000 0.000000 0.000000 -0.041804 28.368600 -17.623893 -33.561104 1.742808 1.197987 66.513980 8.555426 0.428063 -35.300552 -0.394281 8.280201 -5.746970 0.000025 0.000008 0.000000 0.000000 0.000000 -0.041804 28.368600 -17.623893 5.567186 1.404411 1.517772 4.651098 0.654912 1.633862 0.000000 0.000000 0.000000 0.000000 0.000000 0.000000 4.657232 0.491969 1.673785 0.396499 1.761078 0.948530 -15.762634 26.254648 5.119161 0.000000 0.000000 0.000000 4.657232 0.491969 1.673785 0.472288 0.823556 -6.563498 0.000000 0.000000 0.000000 41.287042 -17.715619 -58.148727 0.000035 -58.979831 0.000047 0.000000 0.000000 0.000000 4.657232 0.491969 1.673785 0.625965 0.265417 11.021706 0.000000 0.000000 0.000000 -6.297822 23.802320 54.826919 179.999691 83.353060 -179.999704 0.000000 0.000000 0.000000 
79.631996 85.542679 302.489777 0.000000 0.000000 0.000000 -0.041804 28.368600 -17.623893 -66.963106 6.651253 8.336021 103.658277 7.226998 -0.304442 12.826386 1.056583 18.515150 -1.408048 0.000010 0.000007 0.000000 0.000000 0.000000 -0.041804 28.368600 -17.623893 -33.561104 1.742808 1.197987 66.513980 8.555426 0.428063 -35.300552 -0.394281 8.280201 -5.746970 0.000025 0.000008 0.000000 0.000000 0.000000 -0.041804 28.368600 -17.623893 5.567186 1.404411 1.517772 4.651098 0.654912 1.633862 0.000000 0.000000 0.000000 0.000000 0.000000 0.000000 4.657232 0.491969 1.673785 0.396499 1.761078 0.948530 -15.762634 26.254648 5.119161 0.000000 0.000000 0.000000 4.657232 0.491969 1.673785 0.472288 0.823556 -6.563498 0.000000 0.000000 0.000000 41.287042 -17.715619 -58.148727 0.000035 -58.979831 0.000047 0.000000 0.000000 0.000000 4.657232 0.491969 1.673785 0.625965 0.265417 11.021706 0.000000 0.000000 0.000000 -6.297822 23.802320 54.826919 179.999691 83.353060 -179.999704 0.000000 0.000000 0.000000 
79.631996 85.542679 302.489777 0.000000 0.000000 0.000000 -0.041804 28.368600 -17.623893 -66.963106 6.651253 8.336021 103.658277 7.226998 -0.304442 12.826386 1.056583 18.515150 -1.408048 0.000010 0.000007 0.000000 0.000000 0.000000 -0.041804 28.368600 -17.623893 -33.561104 1.742808 1.197987 66.513980 8.555426 0.428063 -35.300552 -0.394281 8.280201 -5.746970 0.000025 0.000008 0.000000 0.000000 0.000000 -0.041804 28.368600 -17.623893 5.567186 1.404411 1.517772 4.651098 0.654912 1.633862 0.000000 0.000000 0.000000 0.000000 0.000000 0.000000 4.657232 0.491969 1.673785 0.396499 1.761078 0.948530 -15.762634 26.254648 5.119161 0.000000 0.000000 0.000000 4.657232 0.491969 1.673785 0.472288 0.823556 -6.563498 0.000000 0.000000 0.000000 41.287042 -17.715619 -58.148727 0.000035 -58.979831 0.000047 0.000000 0.000000 0.000000 4.657232 0.491969 1.673785 0.625965 0.265417 11.021706 0.000000 0.000000 0.000000 -6.297822 23.802320 54.826919 179.999691 83.353060 -179.999704 0.000000 0.000000 0.000000 
79.631996 85.542679 302.489777 0.000000 0.000000 0.000000 -0.041804 28.368600 -17.623893 -66.963106 6.651253 8.336021 103.658277 7.226998 -0.304442 12.826386 1.056583 18.515150 -1.408048 0.000010 0.000007 0.000000 0.000000 0.000000 -0.041804 28.368600 -17.623893 -33.561104 1.742808 1.197987 66.513980 8.555426 0.428063 -35.300552 -0.394281 8.280201 -5.746970 0.000025 0.000008 0.000000 0.000000 0.000000 -0.041804 28.368600 -17.623893 5.567186 1.404411 1.517772 4.651098 0.654912 1.633862 0.000000 0.000000 0.000000 0.000000 0.000000 0.000000 4.657232 0.491969 1.673785 0.396499 1.761078 0.948530 -15.762634 26.254648 5.119161 0.000000 0.000000 0.000000 4.657232 0.491969 1.673785 0.472288 0.823556 -6.563498 0.000000 0.000000 0.000000 41.287042 -17.715619 -58.148727 0.000035 -58.979831 0.000047 0.000000 0.000000 0.000000 4.657232 0.491969 1.673785 0.625965 0.265417 11.021706 0.000000 0.000000 0.000000 -6.297822 23.802320 54.826919 179.999691 83.353060 -179.999704 0.000000 0.000000 0.000000 
79.631996 85.542679 302.489777 0.000000 0.000000 0.000000 -0.041804 28.368600 -17.623893 -66.963106 6.651253 8.336021 103.658277 7.226998 -0.304442 12.826386 1.056583 18.515150 -1.408048 0.000010 0.000007 0.000000 0.000000 0.000000 -0.041804 28.368600 -17.623893 -33.561104 1.742808 1.197987 66.513980 8.555426 0.428063 -35.300552 -0.394281 8.280201 -5.746970 0.000025 0.000008 0.000000 0.000000 0.000000 -0.041804 28.368600 -17.623893 5.567186 1.404411 1.517772 4.651098 0.654912 1.633862 0.000000 0.000000 0.000000 0.000000 0.000000 0.000000 4.657232 0.491969 1.673785 0.396499 1.761078 0.948530 -15.762634 26.254648 5.119161 0.000000 0.000000 0.000000 4.657232 0.491969 1.673785 0.472288 0.823556 -6.563498 0.000000 0.000000 0.000000 41.287042 -17.715619 -58.148727 0.000035 -58.979831 0.000047 0.000000 0.000000 0.000000 4.657232 0.491969 1.673785 0.625965 0.265417 11.021706 0.000000 0.000000 0.000000 -6.297822 23.802320 54.826919 179.999691 83.353060 -179.999704 0.000000 0.000000 0.000000 
79.631996 85.542679 302.489777 0.000000 0.000000 0.000000 -0.041804 28.368600 -17.623893 -66.963106 6.651253 8.336021 103.658277 7.226998 -0.304442 12.826386 1.056583 18.515150 -1.408048 0.000010 0.000007 0.000000 0.000000 0.000000 -0.041804 28.368600 -17.623893 -33.561104 1.742808 1.197987 66.513980 8.555426 0.428063 -35.300552 -0.394281 8.280201 -5.746970 0.000025 0.000008 0.000000 0.000000 0.000000 -0.041804 28.368600 -17.623893 5.567186 1.404411 1.517772 4.651098 0.654912 1.633862 0.000000 0.000000 0.000000 0.000000 0.000000 0.000000 4.657232 0.491969 1.673785 0.396499 1.761078 0.948530 -15.762634 26.254648 5.119161 0.000000 0.000000 0.000000 4.657232 0.491969 1.673785 0.472288 0.823556 -6.563498 0.000000 0.000000 0.000000 41.287042 -17.715619 -58.148727 0.000035 -58.979831 0.000047 0.000000 0.000000 0.000000 4.657232 0.491969 1.673785 0.625965 0.265417 11.021706 0.000000 0.000000 0.000000 -6.297822 23.802320 54.826919 179.999691 83.353060 -179.999704 0.000000 0.000000 0.000000 
79.631996 85.542679 302.489777 0.000000 0.000000 0.000000 -0.041804 28.368600 -17.623893 -66.963106 6.651253 8.336021 103.658277 7.226998 -0.304442 12.826386 1.056583 18.515150 -1.408048 0.000010 0.000007 0.000000 0.000000 0.000000 -0.041804 28.368600 -17.623893 -33.561104 1.742808 1.197987 66.513980 8.555426 0.428063 -35.300552 -0.394281 8.280201 -5.746970 0.000025 0.000008 0.000000 0.000000 0.000000 -0.041804 28.368600 -17.623893 5.567186 1.404411 1.517772 4.651098 0.654912 1.633862 0.000000 0.000000 0.000000 0.000000 0.000000 0.000000 4.657232 0.491969 1.673785 0.396499 1.761078 0.948530 -15.762634 26.254648 5.119161 0.000000 0.000000 0.000000 4.657232 0.491969 1.673785 0.472288 0.823556 -6.563498 0.000000 0.000000 0.000000 41.287042 -17.715619 -58.148727 0.000035 -58.979831 0.000047 0.000000 0.000000 0.000000 4.657232 0.491969 1.673785 0.625965 0.265417 11.021706 0.000000 0.000000 0.000000 -6.297822 23.802320 54.826919 179.999691 83.353060 -179.999704 0.000000 0.000000 0.000000 
